<?xml version="1.0" encoding="utf-8"?>
<!-- Generator: Adobe Illustrator 17.1.0, SVG Export Plug-In . SVG Version: 6.00 Build 0)  -->
<!DOCTYPE svg PUBLIC "-//W3C//DTD SVG 1.1//EN" "http://www.w3.org/Graphics/SVG/1.1/DTD/svg11.dtd">
<svg version="1.1" id="Layer_1" xmlns="http://www.w3.org/2000/svg" xmlns:xlink="http://www.w3.org/1999/xlink" x="0px" y="0px"
	 width="19px" height="19px" viewBox="0 0 19 19" enable-background="new 0 0 19 19" xml:space="preserve">
<path fill="#FFFFFF" d="M2.4,0h14.1C17.9,0,19,1.1,19,2.4v14.1c0,1.3-1.1,2.4-2.4,2.4H2.4C1.1,19,0,17.9,0,16.6V2.4
	C0,1.1,1.1,0,2.4,0z M13.8,2.1C13.4,2.1,13,2.5,13,3v2c0,0.5,0.4,0.9,0.9,0.9H16c0.5,0,0.9-0.4,0.9-0.9V3c0-0.5-0.4-0.9-0.9-0.9
	H13.8z M16.9,8h-1.7c0.2,0.5,0.2,1.1,0.2,1.6c0,3.2-2.6,5.7-5.9,5.7c-3.3,0-5.9-2.6-5.9-5.7c0-0.6,0.1-1.1,0.2-1.6H2.1v8
	c0,0.4,0.3,0.8,0.8,0.8h13.2c0.4,0,0.8-0.3,0.8-0.8V8z M9.5,5.8c-2.1,0-3.8,1.7-3.8,3.7c0,2,1.7,3.7,3.8,3.7c2.1,0,3.8-1.7,3.8-3.7
	C13.3,7.4,11.6,5.8,9.5,5.8z"/>
</svg>
