<?xml version="1.0" encoding="utf-8"?>
<!-- Generator: Adobe Illustrator 17.0.0, SVG Export Plug-In . SVG Version: 6.00 Build 0)  -->
<!DOCTYPE svg PUBLIC "-//W3C//DTD SVG 1.1//EN" "http://www.w3.org/Graphics/SVG/1.1/DTD/svg11.dtd">
<svg version="1.1" id="Layer_1" xmlns="http://www.w3.org/2000/svg" xmlns:xlink="http://www.w3.org/1999/xlink" x="0px" y="0px"
	 width="746.205px" height="163.073px" viewBox="0 0 746.205 163.073" enable-background="new 0 0 746.205 163.073"
	 xml:space="preserve">
<path d="M94.458,105.716H46.86l-7.607,21.837c-1.965,5.461-2.945,10.177-2.945,14.144c0,6.121,2.304,10.505,6.916,13.152
	c4.608,2.648,11.115,3.971,19.513,3.971v2.471H0v-2.471c11.362,0,20.169-4.287,26.429-12.863
	c3.458-4.781,7.904-14.677,13.338-29.686L81.51,0h4.94l53.352,144.966c2.47,6.766,4.94,10.768,7.41,12.003
	c2.47,1.234,9.88,1.852,22.23,1.852v2.471H78.299v-2.471c12.35,0,20.829-0.451,25.441-1.361c4.608-0.911,6.916-2.771,6.916-5.585
	l-0.494-2.482L94.458,105.716z M93.231,102.999L70.657,40.11l-22.569,62.889H93.231z"/>
<path d="M181.557,89.878c0-2.661-0.266-4.321-0.792-4.99c-0.925-1.33-1.782-2.128-2.574-2.395c-2.376-0.662-7.79-0.996-16.236-0.996
	v-1.782l38.214-2.97v25.146c0.526-5.41,2.376-10.494,5.544-15.246c4.357-6.599,9.832-9.899,16.434-9.899
	c2.506,0,5.213,0.826,8.118,2.475c2.902,1.652,4.851,3.731,5.841,6.237c0.99,2.509,1.485,4.752,1.485,6.732
	c0,5.281-2.2,8.91-6.599,10.89c-1.067,0.528-2.466,0.792-4.198,0.792c-2.667,0-4.932-0.922-6.797-2.771
	c-1.869-1.848-2.8-4.619-2.8-8.316c0-2.376,0.897-4.752,2.698-7.129c1.8-2.375,3.898-3.297,6.299-2.771
	c-0.789-2.772-3.156-4.158-7.097-4.158c-3.811,0-7.623,2.788-11.435,8.356c-4.996,7.165-7.493,16.385-7.493,27.658v37.011
	c0,2.654,0.198,4.377,0.594,5.173c0.263,0.399,0.857,0.798,1.782,1.194c2.772,0.928,8.514,1.392,17.226,1.392v1.782h-57.816
	l-0.589-2.579c3.827,0,7.979,0.169,11.081-0.098c3.1-0.266,5.676-0.303,7.922-1.101c0.792-0.662,1.188-2.593,1.188-5.785V89.878z"/>
<path d="M301.198,119.117v9.107c0,3.039,0.065,5.941,0.198,8.713c0,9.24-1.058,15.576-3.168,19.008
	c-2.905,4.752-8.514,7.128-16.83,7.128c-7.92,0-13.73-1.912-17.424-5.742c-3.697-3.827-5.544-9.306-5.544-16.435V84.665h-15.84
	v-1.782c10.828-2.651,18.986-8.947,24.468-18.89c4.412-7.954,6.618-16.904,6.618-26.848h3.366v41.778h22.77v5.742h-22.77v53.714
	c0,7.109,0.257,11.719,0.776,13.822c1.296,5.006,4.214,7.506,8.752,7.506c5.315,0,8.814-2.89,10.5-8.669
	c1.167-3.941,1.751-11.429,1.751-22.464v-9.457H301.198z"/>
<path d="M349.964,76.745v75.005c0,2.654,0.198,4.377,0.594,5.173c0.263,0.399,0.857,0.798,1.782,1.194
	c2.772,0.928,8.514,1.392,17.226,1.392v1.782H311.75v-1.782c3.827,0,7.292-0.133,10.395-0.399c3.1-0.266,5.773-0.798,8.019-1.596
	c0.792-0.662,1.188-2.593,1.188-5.785V89.875c0-2.524-0.266-4.121-0.792-4.789c-0.925-1.331-1.782-2.129-2.574-2.395
	c-2.376-0.662-7.79-0.996-16.236-0.996v-1.782L349.964,76.745z"/>
<path d="M339.569,31.997c3.137,0,5.754,1.058,7.849,3.168c2.091,2.113,3.14,4.752,3.14,7.92s-1.049,5.81-3.14,7.92
	c-2.095,2.113-4.712,3.168-7.849,3.168c-3.14,0-5.757-1.055-7.849-3.168c-2.095-2.11-3.14-4.752-3.14-7.92s1.045-5.807,3.14-7.92
	C333.812,33.055,336.429,31.997,339.569,31.997z"/>
<path d="M557.759,161.291H419.685l87.685-134.827c7.904-12.204,11.855-18.88,11.855-20.038c0-1.482-2.717-2.227-8.15-2.227
	c-23.219,0-38.203,2.068-44.953,6.202c-12.023,7.441-19.6,25.217-22.725,53.325h-3.459V1.976h118.809l-87.686,134.831
	c-7.904,12.042-11.855,18.557-11.855,19.545c0,1.319,2.551,1.976,7.656,1.976c22.559,0,37.297-0.656,44.213-1.976
	c13.006-2.479,22.639-8.426,28.898-17.846c7.078-10.575,11.858-27.846,14.326-51.809h3.459V161.291z"/>
<path d="M589.828,120.503c0,14.194,1.684,24.475,5.049,30.842c3.367,6.366,8.481,9.55,15.346,9.55
	c7.258,0,13.662-2.456,19.205-7.372c6.732-5.978,10.1-14.079,10.1-24.308h1.584c0,9.9-3.168,18.018-9.504,24.354
	c-6.336,6.336-14.785,9.505-25.346,9.505c-8.844,0-16.896-3.366-24.154-10.099c-8.582-7.92-12.871-18.281-12.871-31.086
	c0-13.859,4.223-25.146,12.672-33.857c7.391-7.524,15.707-11.286,24.949-11.286c8.578,0,15.707,2.509,21.383,7.524
	c8.316,7.394,12.475,19.472,12.475,36.233H589.828z M623.884,118.127c0-12.799-1.143-22.566-3.426-29.301
	c-2.283-6.732-5.971-10.101-11.059-10.101c-7.178,0-12.232,3.202-15.17,9.599c-2.935,6.402-4.402,16.336-4.402,29.803H623.884z"/>
<path d="M679.281,112.75v39c0,2.654,0.199,4.377,0.594,5.173c0.264,0.399,0.893,0.798,1.881,1.194
	c0.99,0.398,2.773,0.73,5.348,0.996c2.572,0.266,4.85,0.396,6.83,0.396v1.782h-50.688v-1.782c2.902,0,5.773-0.13,8.613-0.396
	c2.836-0.266,5.377-0.795,7.623-1.594c0.791-0.662,1.188-2.586,1.188-5.774v-60.3c0-1.194-0.035-2.388-0.1-3.583
	c-0.068-1.193-0.365-2.121-0.891-2.783l-1.188-1.993c-1.322-0.928-6.336-1.393-15.049-1.393v-1.782l35.838-3.168V102
	c0.793-5.656,2.506-10.652,5.148-14.996c3.693-6.051,7.59-9.306,11.682-9.767c4.09-0.458,6.732-0.69,7.92-0.69
	c8.316,0,14.916,2.515,19.801,7.543c4.09,4.235,6.137,9.262,6.137,15.085v52.6c0,2.648,0.199,4.368,0.596,5.161
	c0.262,0.396,0.922,0.791,1.979,1.188c1.055,0.397,2.971,0.727,5.742,0.99c2.773,0.266,5.412,0.396,7.92,0.396v1.782h-50.688v-1.782
	c2.109,0,4.555-0.13,7.326-0.396c2.772-0.266,5.213-0.795,7.326-1.594c0.791-0.662,1.188-2.586,1.188-5.77v-50.342
	c0-6.367-0.529-11.209-1.584-14.525c-1.717-5.438-4.885-8.158-9.504-8.158c-6.072,0-11.023,3.78-14.85,11.341
	C682.513,95.771,680.468,103.332,679.281,112.75z"/>
<path d="M394.57,139.896c3.137,0,5.754,1.059,7.85,3.168c2.09,2.113,3.139,4.752,3.139,7.92s-1.049,5.811-3.139,7.92
	c-2.096,2.113-4.713,3.168-7.85,3.168c-3.14,0-5.757-1.055-7.849-3.168c-2.095-2.109-3.14-4.752-3.14-7.92s1.045-5.807,3.14-7.92
	C388.812,140.955,391.43,139.896,394.57,139.896z"/>
</svg>
